<svg width="100" height="100" viewBox="0 0 100 100" fill="none" xmlns="http://www.w3.org/2000/svg">
<rect x="0.249023" width="99.3049" height="99.3049" rx="49.6524" fill="white" fill-opacity="0.2"/>
<path d="M61.7555 48.3947L40.5565 27.2544C39.862 26.5621 38.7375 26.5633 38.0441 27.258C37.3512 27.9525 37.353 29.0777 38.0477 29.7704L57.9848 49.6525L38.0469 69.5346C37.3524 70.2274 37.3506 71.3518 38.0434 72.0465C38.391 72.3947 38.8463 72.5688 39.3017 72.5688C39.7559 72.5688 40.2095 72.3959 40.5565 72.0501L61.7555 50.9102C62.0901 50.5774 62.2778 50.1245 62.2778 49.6525C62.2778 49.1806 62.0895 48.7282 61.7555 48.3947Z" fill="white"/>
<rect x="0.745548" y="0.496524" width="98.3118" height="98.3118" rx="49.1559" stroke="white" stroke-opacity="0.3" stroke-width="0.993049"/>
</svg>
